<?xml version="1.0" encoding="utf-8"?>
<!-- Generator: Adobe Illustrator 20.0.0, SVG Export Plug-In . SVG Version: 6.00 Build 0)  -->
<svg version="1.1" id="Capa_1" xmlns="http://www.w3.org/2000/svg" xmlns:xlink="http://www.w3.org/1999/xlink" x="0px" y="0px"
	 viewBox="0 0 99 99" style="enable-background:new 0 0 99 99;" xml:space="preserve">
<style type="text/css">
	.st0{fill-rule:evenodd;clip-rule:evenodd;fill:#181616;}
	.st1{fill:#181616;}
</style>
<g>
	<path class="st0" d="M49.8,1.4C22.6,1.4,0.5,23.5,0.5,50.7c0,21.8,14.1,40.2,33.7,46.7c2.5,0.5,3.4-1.1,3.4-2.4
		c0-1.2,0-5.1-0.1-9.2c-13.7,3-16.6-5.8-16.6-5.8c-2.2-5.7-5.5-7.2-5.5-7.2c-4.5-3.1,0.3-3,0.3-3c4.9,0.3,7.6,5.1,7.6,5.1
		c4.4,7.5,11.5,5.4,14.3,4.1c0.4-3.2,1.7-5.4,3.1-6.6C29.8,71.2,18.3,67,18.3,48.1c0-5.4,1.9-9.8,5.1-13.2c-0.5-1.2-2.2-6.3,0.5-13
		c0,0,4.1-1.3,13.5,5c3.9-1.1,8.1-1.6,12.3-1.7c4.2,0,8.4,0.6,12.3,1.7c9.4-6.4,13.5-5,13.5-5c2.7,6.8,1,11.8,0.5,13
		c3.2,3.4,5.1,7.8,5.1,13.2c0,18.9-11.5,23.1-22.5,24.3c1.8,1.5,3.3,4.5,3.3,9.1c0,6.6-0.1,11.9-0.1,13.5c0,1.3,0.9,2.8,3.4,2.4
		C84.9,90.9,99,72.4,99,50.7C99,23.5,77,1.4,49.8,1.4z"/>
	<path class="st1" d="M19.2,72.2c-0.1,0.2-0.5,0.3-0.8,0.2c-0.4-0.2-0.6-0.5-0.4-0.7c0.1-0.3,0.5-0.3,0.8-0.2
		C19.1,71.6,19.3,71.9,19.2,72.2L19.2,72.2z M18.5,71.7"/>
	<path class="st1" d="M21.2,74.4c-0.2,0.2-0.7,0.1-1-0.2c-0.3-0.3-0.4-0.8-0.1-1c0.2-0.2,0.7-0.1,1,0.2
		C21.3,73.7,21.4,74.2,21.2,74.4L21.2,74.4z M20.7,73.9"/>
	<path class="st1" d="M23.1,77.2c-0.3,0.2-0.8,0-1.1-0.4c-0.3-0.4-0.3-1,0-1.2c0.3-0.2,0.8,0,1.1,0.4C23.4,76.5,23.4,77,23.1,77.2
		L23.1,77.2z M23.1,77.2"/>
	<path class="st1" d="M25.8,80c-0.3,0.3-0.8,0.2-1.3-0.2c-0.4-0.4-0.6-1-0.3-1.3c0.3-0.3,0.9-0.2,1.3,0.2C25.9,79.1,26,79.7,25.8,80
		L25.8,80z M25.8,80"/>
	<path class="st1" d="M29.4,81.5c-0.1,0.4-0.7,0.6-1.2,0.4c-0.6-0.2-0.9-0.6-0.8-1c0.1-0.4,0.7-0.6,1.2-0.4
		C29.2,80.7,29.5,81.2,29.4,81.5L29.4,81.5z M29.4,81.5"/>
	<path class="st1" d="M33.5,81.8c0,0.4-0.5,0.7-1,0.8c-0.6,0-1.1-0.3-1.1-0.7c0-0.4,0.5-0.7,1.1-0.8C33,81.1,33.5,81.4,33.5,81.8
		L33.5,81.8z M33.5,81.8"/>
	<path class="st1" d="M37.2,81.2c0.1,0.4-0.3,0.8-0.9,0.9c-0.6,0.1-1.1-0.1-1.2-0.5c-0.1-0.4,0.3-0.8,0.9-0.9
		C36.6,80.6,37.1,80.8,37.2,81.2L37.2,81.2z M37.2,81.2"/>
</g>
</svg>
