<?xml version="1.0" encoding="utf-8"?>
<!-- Generator: Adobe Illustrator 20.0.0, SVG Export Plug-In . SVG Version: 6.00 Build 0)  -->
<svg version="1.1" id="Capa_1" xmlns="http://www.w3.org/2000/svg" xmlns:xlink="http://www.w3.org/1999/xlink" x="0px" y="0px"
	 viewBox="0 0 99 99" style="enable-background:new 0 0 99 99;" xml:space="preserve">
<style type="text/css">
	.st0{fill-rule:evenodd;clip-rule:evenodd;fill:#181616;}
	.st1{fill:#181616;}
</style>
<g>
	<path class="st0" d="M48.8,0.4C21.6,0.4-0.5,22.5-0.5,49.7c0,21.8,14.1,40.2,33.7,46.7c2.5,0.5,3.4-1.1,3.4-2.4
		c0-1.2,0-5.1-0.1-9.2c-13.7,3-16.6-5.8-16.6-5.8c-2.2-5.7-5.5-7.2-5.5-7.2c-4.5-3.1,0.3-3,0.3-3c4.9,0.3,7.6,5.1,7.6,5.1
		c4.4,7.5,11.5,5.4,14.3,4.1c0.4-3.2,1.7-5.4,3.1-6.6C28.8,70.2,17.3,66,17.3,47.1c0-5.4,1.9-9.8,5.1-13.2c-0.5-1.2-2.2-6.3,0.5-13
		c0,0,4.1-1.3,13.5,5c3.9-1.1,8.1-1.6,12.3-1.7c4.2,0,8.4,0.6,12.3,1.7c9.4-6.4,13.5-5,13.5-5c2.7,6.8,1,11.8,0.5,13
		c3.2,3.4,5.1,7.8,5.1,13.2c0,18.9-11.5,23.1-22.5,24.3c1.8,1.5,3.3,4.5,3.3,9.1c0,6.6-0.1,11.9-0.1,13.5c0,1.3,0.9,2.8,3.4,2.4
		C83.9,89.9,98,71.4,98,49.7C98,22.5,76,0.4,48.8,0.4z"/>
	<path class="st1" d="M18.2,71.2c-0.1,0.2-0.5,0.3-0.8,0.2c-0.4-0.2-0.6-0.5-0.4-0.7c0.1-0.3,0.5-0.3,0.8-0.2
		C18.1,70.6,18.3,70.9,18.2,71.2L18.2,71.2z M17.5,70.7"/>
	<path class="st1" d="M20.2,73.4c-0.2,0.2-0.7,0.1-1-0.2c-0.3-0.3-0.4-0.8-0.1-1c0.2-0.2,0.7-0.1,1,0.2
		C20.3,72.7,20.4,73.2,20.2,73.4L20.2,73.4z M19.7,72.9"/>
	<path class="st1" d="M22.1,76.2c-0.3,0.2-0.8,0-1.1-0.4c-0.3-0.4-0.3-1,0-1.2c0.3-0.2,0.8,0,1.1,0.4C22.4,75.5,22.4,76,22.1,76.2
		L22.1,76.2z M22.1,76.2"/>
	<path class="st1" d="M24.8,79c-0.3,0.3-0.8,0.2-1.3-0.2c-0.4-0.4-0.6-1-0.3-1.3c0.3-0.3,0.9-0.2,1.3,0.2C24.9,78.1,25,78.7,24.8,79
		L24.8,79z M24.8,79"/>
	<path class="st1" d="M28.4,80.5c-0.1,0.4-0.7,0.6-1.2,0.4c-0.6-0.2-0.9-0.6-0.8-1c0.1-0.4,0.7-0.6,1.2-0.4
		C28.2,79.7,28.5,80.2,28.4,80.5L28.4,80.5z M28.4,80.5"/>
	<path class="st1" d="M32.5,80.8c0,0.4-0.5,0.7-1,0.8c-0.6,0-1.1-0.3-1.1-0.7c0-0.4,0.5-0.7,1.1-0.8C32,80.1,32.5,80.4,32.5,80.8
		L32.5,80.8z M32.5,80.8"/>
	<path class="st1" d="M36.2,80.2c0.1,0.4-0.3,0.8-0.9,0.9c-0.6,0.1-1.1-0.1-1.2-0.5c-0.1-0.4,0.3-0.8,0.9-0.9
		C35.6,79.6,36.1,79.8,36.2,80.2L36.2,80.2z M36.2,80.2"/>
</g>
</svg>
